<?xml version="1.0" encoding="utf-8"?>
<!-- Generator: Adobe Illustrator 24.2.3, SVG Export Plug-In . SVG Version: 6.00 Build 0)  -->
<svg version="1.1" id="Layer_1" xmlns="http://www.w3.org/2000/svg" xmlns:xlink="http://www.w3.org/1999/xlink" x="0px" y="0px"
	 viewBox="0 0 296 206.5" style="enable-background:new 0 0 296 206.5;" xml:space="preserve">
<style type="text/css">
	.st0{fill:#FFFFFF;}
	.st1{opacity:0.5;fill:#F7C6C8;enable-background:new    ;}
	.st2{fill:#8B8CC4;}
	.st3{fill:url(#SVGID_1_);}
	.st4{fill:#33312D;}
	.st5{fill:#BBB0D6;}
	.st6{fill:#E0BB95;}
	.st7{fill:#9C96AE;}
	.st8{fill:#767677;}
	.st9{fill:#BF8F68;}
	.st10{fill:url(#SVGID_2_);}
	.st11{fill:url(#SVGID_3_);}
	.st12{fill:#231F20;}
	.st13{fill:#E3646A;}
	.st14{fill:#943838;}
	.st15{fill:#F3F2F1;}
	.st16{fill:#EE8F94;}
	.st17{fill:#E1DFDD;}
	.st18{fill:url(#SVGID_4_);}
	.st19{fill:#E2E2F6;}
	.st20{fill:url(#SVGID_5_);}
	.st21{fill:url(#SVGID_6_);}
	.st22{fill:#8A8886;}
	.st23{fill:url(#SVGID_7_);}
	.st24{fill:url(#SVGID_8_);}
	.st25{fill:url(#SVGID_9_);}
	.st26{fill:url(#SVGID_10_);}
	.st27{fill:url(#SVGID_11_);}
	.st28{fill:#9B643D;}
	.st29{fill:url(#SVGID_12_);}
	.st30{fill:#752A2A;}
	.st31{opacity:0.3;fill:#EDEBE9;enable-background:new    ;}
	.st32{opacity:0.4;fill:#E1DFDD;enable-background:new    ;}
	.st33{fill:#FCFCFB;}
	.st34{fill:#F7C6C8;}
	.st35{fill:none;}
	.st36{opacity:0.5;fill:#BDBDE6;enable-background:new    ;}
	.st37{fill:#A6A7DC;}
	.st38{opacity:0.3;fill:#C8C6C4;enable-background:new    ;}
	.st39{fill:#C8C6C4;}
	.st40{fill:#BDBDE6;}
</style>
<g>
	<circle class="st0" cx="205.7" cy="119.4" r="67.1"/>
	<circle class="st1" cx="205.7" cy="119.4" r="67.1"/>
	<g>
		<g>
			<g>
				<g>
					<path class="st2" d="M149.8,156.5c12,18.1,32.6,30,55.9,30c33.3,0,60.9-24.2,66.2-56c-12.9-9.6-28.5-15.3-45.4-15.7
						c-4.3-0.1-9,0.4-13.9,1.5c-0.8-2-2.6-3.2-5.7-3.4C175,116.7,157.6,141.4,149.8,156.5z"/>
					
						<radialGradient id="SVGID_1_" cx="169.498" cy="318.7094" r="15.9738" gradientTransform="matrix(1 0 0 1 0 -144)" gradientUnits="userSpaceOnUse">
						<stop  offset="0" style="stop-color:#6264A7"/>
						<stop  offset="1" style="stop-color:#8B8CC7;stop-opacity:0"/>
					</radialGradient>
					<path class="st3" d="M153.9,162.1c4.6,5.6,10.1,10.4,16.3,14.3c3.7-16.4,12.4-28.7,12.4-28.7l-18.5-6.2L153.9,162.1z"/>
					
						<ellipse transform="matrix(0.1513 -0.9885 0.9885 0.1513 120.178 291.7823)" class="st4" cx="230" cy="75.9" rx="2.7" ry="1.5"/>
					
						<ellipse transform="matrix(0.1513 -0.9885 0.9885 0.1513 109.3202 274.3781)" class="st4" cx="214.4" cy="73.5" rx="2.7" ry="1.5"/>
					<path class="st5" d="M206.8,100.4L206.8,100.4c-0.1,0-0.2,0-0.2,0L206.8,100.4z"/>
					<path class="st6" d="M218.1,80.2c-11.2,13.5-3.6,39.7-3.6,39.7c-0.1,7.5,26.7,13.6,43.1-1.3c-5.3-9.2-0.5-38.1-0.5-38.1
						S224.6,72.4,218.1,80.2z"/>
					<path class="st6" d="M254.3,69.1l-4.2,27.2c-0.9,5.7-7.6,9.5-15,8.4l-17-2.6c-7.4-1.1-12.7-6.8-11.8-12.5l4.2-27.2
						c0.9-5.7,7.6-9.5,15-8.4l17,2.6C249.9,57.7,255.2,63.4,254.3,69.1z"/>
					<path class="st7" d="M207.5,82.2c0,0.1,0,0.1,0,0.2l0,0L207.5,82.2z"/>
					<path class="st6" d="M233,90.1c-0.9,5.9-4.9,10.6-10.1,12.7c-2.7,1.1-5.6,1.5-8.7,1c-9-1.4-15.1-9.8-13.8-18.7
						c0.4-2.5,1.3-4.8,2.6-6.8c1.5-2.1,3.4-3.9,5.6-5.1c3.1-1.7,6.7-2.5,10.5-1.9c5.4,0.8,9.7,4.2,12.1,8.6
						C232.9,83,233.5,86.5,233,90.1z"/>
					<ellipse class="st6" cx="254.5" cy="81.1" rx="6.7" ry="6.7"/>
					<path class="st8" d="M220.9,83.8c0.7,0.2,1.4,0.3,2,0.4c0.6,0.1,1.3,0.1,1.9,0c0.6-0.1,1.2-0.3,1.8-0.5
						c0.6-0.3,1.1-0.7,1.7-1.1l0,0c0.1-0.1,0.2,0,0.3,0c0,0.1,0,0.1,0,0.2c-0.5,1.5-1.9,2.7-3.6,2.9c-0.8,0.1-1.7,0-2.4-0.3
						c-0.7-0.3-1.4-0.7-1.9-1.3c-0.1-0.1-0.1-0.2,0-0.3C220.8,83.8,220.9,83.8,220.9,83.8L220.9,83.8z"/>
					<path class="st9" d="M256.2,69.8c0.2-2.1,0-4.2-0.5-6.1c-1.2-4.5-4.1-8.4-8.1-10.9c-1.3-0.8-4.6-2-6.7-2.3
						c-2.1-0.3-17.2-2.5-17.7-2.7c-2.7-0.7-4.3-1.9-5.3-3c-1.1-1.2-1.4-2.3-1.4-2.3s-0.8,0.7-1.7,1.9c-0.8,1.2-1.8,2.9-2.3,5.1
						c-1,4.5,1.9,6.6,1.9,6.6l0.9,0.1l5.9,0.8l5.1,0.8l15.3,2.2c-0.7,1.8-1.5,4.5,1.4,8.5c2.9,3.9-0.1,9.3-0.1,9.3
						c-0.6,3.6-3.9,6.1-7.5,5.5l-32.4-4.9c-1.4,2-2.3,4.4-2.7,7c-1.3,9,4.7,17.2,14.1,18.6l8.9,1.4l-0.1,0.1l5.1,0.7
						c11,1.6,21.3-6.1,22.9-17.1l1.2-8.6c0,0,0.5-5.3,2.9-5.8c0.2-1.2,0.5-3.4,0.5-3.4C256.1,70.7,256.1,70.3,256.2,69.8z"/>
					
						<radialGradient id="SVGID_2_" cx="245.1572" cy="244.9703" r="8.7353" gradientTransform="matrix(1 0 0 1 0 -182)" gradientUnits="userSpaceOnUse">
						<stop  offset="0" style="stop-color:#9B643D"/>
						<stop  offset="1" style="stop-color:#BF8F68"/>
					</radialGradient>
					<path class="st10" d="M250.1,54.7c0,0-6.2,0.7-8.4,5.3L227.5,58c0,0,0.4-7,5.1-7.8C245.3,49.2,250.1,54.7,250.1,54.7z"/>
					
						<radialGradient id="SVGID_3_" cx="-112.4318" cy="-315.6646" r="9.5049" gradientTransform="matrix(-0.9849 -0.1726 -0.1302 0.7428 71.707 292.9991)" gradientUnits="userSpaceOnUse">
						<stop  offset="0.3127" style="stop-color:#9B643D"/>
						<stop  offset="0.919" style="stop-color:#BA8A63;stop-opacity:0.1178"/>
						<stop  offset="1" style="stop-color:#BF8F68;stop-opacity:0"/>
					</radialGradient>
					<polygon class="st11" points="211.4,57.3 204.9,98.4 218,100.7 224.5,59.5 					"/>
					<path class="st12" d="M216.8,74.5c-0.2,0.2-0.4,0.3-0.6,0.1l-0.1-0.1c-0.7-0.6-1.3-1-1.9-1.1c-0.7-0.2-1.2,0-1.9,0.5l-0.1,0.1
						c-0.1,0.1-0.2,0.1-0.3,0.1c-0.2,0-0.4-0.2-0.4-0.5c0.1-0.7,0.5-1.2,1-1.6c0.6-0.4,1.3-0.4,2-0.4c1.4,0.3,2.3,1.4,2.4,2.6
						C216.9,74.3,216.8,74.4,216.8,74.5z"/>
					<path class="st12" d="M233.8,76.6c-0.2,0.2-0.4,0.3-0.6,0.1l-0.1-0.1c-0.7-0.6-1.3-1-1.9-1.1c-0.7-0.2-1.2,0-1.9,0.5l-0.1,0.1
						c-0.1,0.1-0.2,0.1-0.3,0.1c-0.2,0-0.4-0.2-0.4-0.5c0.1-0.7,0.5-1.2,1-1.6c0.6-0.4,1.3-0.4,2-0.4c1.4,0.3,2.3,1.4,2.4,2.6
						C233.9,76.4,233.9,76.5,233.8,76.6z"/>
					<g>
						<path class="st13" d="M212.7,81.2C212.7,81.2,212.6,81.2,212.7,81.2c-2.4-0.4-4.5-1.6-5.8-3.5c-1.4-1.9-2-4.2-1.6-6.6
							c0.4-2.3,1.6-4.4,3.5-5.8c1.9-1.4,4.2-2,6.6-1.6c2.3,0.4,4.4,1.6,5.8,3.5s2,4.2,1.6,6.6c-0.4,2.3-1.6,4.4-3.5,5.8
							C217.3,81,215,81.5,212.7,81.2z M214.9,65.8c-1.8-0.3-3.5,0.2-4.9,1.2c-1.4,1.1-2.4,2.6-2.7,4.4l0,0c-0.3,1.8,0.2,3.5,1.2,5
							c1.1,1.4,2.6,2.4,4.4,2.7c1.8,0.3,3.5-0.2,5-1.2c1.4-1.1,2.4-2.6,2.7-4.4C221.1,69.8,218.6,66.4,214.9,65.8
							C214.9,65.9,214.9,65.8,214.9,65.8z"/>
					</g>
					<path class="st6" d="M221.5,81.2L221.5,81.2c-0.5-0.1-1-0.3-1.5-0.5c-0.5-0.3-2.9-1.7-2.2-4.4c0.8-2.9,4.2-3.2,4.9-3.6
						c1.2-0.8,1.4-1.7,1.4-1.7c2.4,0.4,2.6,4.3,2.3,6.6l0,0C226,79.9,223.8,81.5,221.5,81.2z"/>
					<path class="st13" d="M253.1,77.2l-12.5-1.9c0-1.9-0.6-3.7-1.7-5.3c-1.4-1.9-3.4-3.1-5.8-3.5c0,0,0,0-0.1,0
						c-4.8-0.7-9.2,2.6-10,7.4c-0.7,4.8,2.6,9.3,7.4,10c0,0,0.1,0,0.1,0c2.3,0.3,4.6-0.2,6.5-1.6c1.7-1.2,2.8-3,3.3-4.9l12.4,1.9
						L253.1,77.2z M235.8,80.6c-1.4,1.1-3.2,1.5-5,1.2c-3.7-0.6-6.2-4-5.6-7.6c0.6-3.6,4-6.1,7.6-5.6c0,0,0,0,0.1,0
						c1.8,0.3,3.3,1.2,4.4,2.7c1.1,1.4,1.5,3.2,1.2,5C238.2,78,237.2,79.5,235.8,80.6z"/>
					<path class="st14" d="M217.9,85.2c0.1,3.6,3.2,6.4,6.8,6.3c3.6-0.1,6.4-3.2,6.3-6.8L217.9,85.2z"/>
					<path class="st15" d="M217.9,85.2c0,0.3,0,0.7,0.1,1c2,0.5,4.2,0.8,6.6,0.7c2.3-0.1,4.5-0.5,6.3-1.1c0-0.3,0.1-0.7,0-1.1
						L217.9,85.2z"/>
					<path class="st2" d="M257.6,130.9h-50.8v-22.5c0-1.3,1-2.3,2.2-2.3h8.9c0.5,0,1,0.2,1.4,0.4l2.3,2l2.7-2.1
						c0.4-0.2,0.8-0.4,1.3-0.4h29.7c1.2,0,2.2,1,2.2,2.3L257.6,130.9L257.6,130.9z"/>
					<polygon class="st16" points="231.7,107.2 222.5,111.2 213.2,107.2 213.2,117.7 222.5,113.7 231.7,117.7 					"/>
				</g>
			</g>
		</g>
	</g>
	<path class="st17" d="M250.7,127.3h-54.6c-1.3,0-2.4,1.1-2.4,2.4v55.8c3.9,0.7,7.9,1.1,12,1.1c18.5,0,35.3-7.5,47.4-19.6v-37.2
		C253.1,128.3,252.1,127.3,250.7,127.3z"/>
	<path class="st6" d="M202.6,141.1c-0.3-0.3-1.3-1.2-2.6-0.7c-1.2,0.4-1,1.9-0.8,2.5l4.5,7.5l-10.4-4.7c-1.3-0.6-3,0.2-3.3,1.6
		c-0.2,0.9,0.2,2,1,2.5l1.1,0.8l-1.3,6.7c-0.2,1.7,0.7,3.4,2.3,4.2c0,0,13.4,7.9,15.2,9.9c7.7,5.4,16.3,12.9,16.3,12.9l8.1-11.5
		l-18.2-13.1l-0.5-2.8c-0.5-3.2-1.6-5.9-3.8-8.3C210.1,148.5,203.3,141.8,202.6,141.1z"/>
	<path class="st2" d="M256.4,115.6c0,0,21.8,11.9,31.8,29.7c14.2,25.5,8.4,54.1-12.5,59.8c-35.1,9.6-67.1-33.5-67.1-33.5l6.1-11.7
		l38.4,3.9L256.4,115.6z"/>
	
		<radialGradient id="SVGID_4_" cx="315.174" cy="534.529" r="25.3405" gradientTransform="matrix(0.9737 0.228 -0.228 0.9737 65.1902 -425.9025)" gradientUnits="userSpaceOnUse">
		<stop  offset="0" style="stop-color:#6264A7"/>
		<stop  offset="0.2825" style="stop-color:#7274B4"/>
		<stop  offset="0.7011" style="stop-color:#8486C2"/>
		<stop  offset="1" style="stop-color:#8B8CC7"/>
	</radialGradient>
	<polygon class="st18" points="253.1,163.8 271.9,165.4 274.7,143.3 253.1,143.3 	"/>
	<circle class="st19" cx="90.3" cy="119.4" r="67.1"/>
	<g>
		<g>
			
				<radialGradient id="SVGID_5_" cx="108.492" cy="324.1865" r="29.9121" gradientTransform="matrix(1 0 0 1 0 -144)" gradientUnits="userSpaceOnUse">
				<stop  offset="6.000000e-04" style="stop-color:#E3646A"/>
				<stop  offset="1" style="stop-color:#EE8F94"/>
			</radialGradient>
			<path class="st20" d="M125.5,176.5c-5.9-44.9-29.7-59.7-29.7-59.7l-20,12c5.2,14.1,7,41,8.1,57.4c2.1,0.2,4.2,0.3,6.4,0.3
				C103.2,186.5,115.3,182.9,125.5,176.5z"/>
			<g>
				<g>
					
						<radialGradient id="SVGID_6_" cx="30.6897" cy="321.0892" r="49.9375" gradientTransform="matrix(1 0 0 1 0 -144)" gradientUnits="userSpaceOnUse">
						<stop  offset="6.000000e-04" style="stop-color:#E3646A"/>
						<stop  offset="1" style="stop-color:#EE8F94"/>
					</radialGradient>
					<path class="st21" d="M81.3,111.4c-5.9-0.3-10.8,1.4-16.2,3.8l0,0c0,0-15.1,11.2-30.4,41.9c12.1,17.8,32.5,29.5,55.6,29.5
						c6.6,0,13-1,19-2.7c1-15.6,1.5-29.5,0.7-35.4C106.8,124.4,96.6,112.2,81.3,111.4z"/>
					<path class="st22" d="M90.3,186.5c22.6,0,42.6-11.2,54.8-28.4H91.8c-1.3,0-2.5,1-2.9,2.5l-7.6,25.3
						C84.3,186.3,87.3,186.5,90.3,186.5z"/>
				</g>
			</g>
			
				<radialGradient id="SVGID_7_" cx="80.8052" cy="69.0872" r="30.7687" gradientTransform="matrix(1 0 0 -1 0 136)" gradientUnits="userSpaceOnUse">
				<stop  offset="0" style="stop-color:#0C0A05"/>
				<stop  offset="1" style="stop-color:#33312D"/>
			</radialGradient>
			<circle class="st23" cx="78.5" cy="47.1" r="13.3"/>
			
				<radialGradient id="SVGID_8_" cx="80.8052" cy="69.0872" r="30.7687" gradientTransform="matrix(1 0 0 -1 0 136)" gradientUnits="userSpaceOnUse">
				<stop  offset="0" style="stop-color:#0C0A05"/>
				<stop  offset="1" style="stop-color:#33312D"/>
			</radialGradient>
			<circle class="st24" cx="70.1" cy="31.8" r="17"/>
			
				<radialGradient id="SVGID_9_" cx="80.8052" cy="69.0872" r="30.7687" gradientTransform="matrix(1 0 0 -1 0 136)" gradientUnits="userSpaceOnUse">
				<stop  offset="0" style="stop-color:#0C0A05"/>
				<stop  offset="1" style="stop-color:#33312D"/>
			</radialGradient>
			<circle class="st25" cx="56.1" cy="55.8" r="17.2"/>
			
				<radialGradient id="SVGID_10_" cx="80.8052" cy="69.0872" r="30.7687" gradientTransform="matrix(1 0 0 -1 0 136)" gradientUnits="userSpaceOnUse">
				<stop  offset="0" style="stop-color:#0C0A05"/>
				<stop  offset="1" style="stop-color:#33312D"/>
			</radialGradient>
			<circle class="st26" cx="50.3" cy="37.5" r="15.4"/>
			<path class="st4" d="M95,92.6l-1.7,0.2C80.2,94.4,67.2,82,66.5,70.5c-0.7-11.4,6.7-19.3,18.3-22.1c15-3.6,31,4.1,29.8,26.1
				C113.9,85.6,107.8,91,95,92.6z"/>
			
				<radialGradient id="SVGID_11_" cx="1428.8069" cy="832.5876" r="18.489" gradientTransform="matrix(1 0 -0.4145 1.0499 -986.3016 -781.4053)" gradientUnits="userSpaceOnUse">
			</radialGradient>
			<path class="st27" d="M65.1,115.2c0,0,5.9,7.4,17.2,8.2c6.4,0,10.3-3.3,13.5-6.6c-4.5-3.7-8.7-4.3-7-11.7
				c1.4-6.1,4.6-13.8,4.6-13.8L78.4,89c0,0-0.3,10.1-3.7,16.9C71.4,112.6,65.1,115.2,65.1,115.2z"/>
			<path class="st28" d="M100.5,105.2c-10.2,0.9-22.9-6.7-24.4-18.7l2-4.5c0.6-13.5,17.7-5.6,16.7-24c9.4-3.9,17.8,4.3,19.5,14.3
				c0,0,0.7,9.1,1.1,12.1C116.8,95,107.7,104.6,100.5,105.2z"/>
			
				<radialGradient id="SVGID_12_" cx="-584.1775" cy="139.3592" r="12.3581" gradientTransform="matrix(0.9889 -0.1482 0.1409 0.9404 658.6492 -133.0133)" gradientUnits="userSpaceOnUse">
			</radialGradient>
			<polygon class="st29" points="113.3,68.4 115.3,89.6 103,98.9 98.2,66.8 			"/>
			<path class="st28" d="M79.1,80c-4-1.5-8.1,0.1-9.2,3.1c-1.1,3,0.7,6.8,4.3,8c1.7,0.5,4.5,0.4,4.5,0.4L79.1,80z"/>
			<path class="st28" d="M97.1,84.2c0.5,1.4,4.6,6.5,4.6,6.5s0.1-2.1,2.1-2.8c2.1-0.7,3.4-3.6,2.1-5.6c-0.9-1.4-2.2-1.6-3.5-2.3
				c-1.5-0.8-2.6-3.2-2.6-3.2S95.8,80.6,97.1,84.2z"/>
			<path class="st30" d="M103.9,92.3c0.7,0.1,1.2,0.8,1,1.4c-0.9,2.5-3.4,4.2-6.1,3.9c-2.7-0.3-4.9-2.4-5.2-5
				c-0.1-0.7,0.5-1.3,1.2-1.2L103.9,92.3z"/>
			<path class="st0" d="M104.5,92.5c-1.2,1-3.6,1.5-6.3,1c-1.8-0.3-3.3-1-4.4-1.8c0.2-0.2,0.5-0.4,0.9-0.3l9.1,0.9
				C104.1,92.3,104.3,92.4,104.5,92.5z"/>
			
				<ellipse transform="matrix(0.9956 -9.340267e-02 9.340267e-02 0.9956 -7.0037 8.9868)" class="st12" cx="92.5" cy="79.3" rx="1.7" ry="3.3"/>
			
				<ellipse transform="matrix(0.9956 -9.340267e-02 9.340267e-02 0.9956 -6.7669 10.42)" class="st12" cx="107.9" cy="77.5" rx="1.7" ry="3.3"/>
			<path class="st16" d="M29.8,148.4c6,12.5,15.8,22.9,27.8,29.6c4.3-16.9,9.7-35.5,15.2-45.4l-7.7-17.4
				C65.1,115.2,46.7,124,29.8,148.4z"/>
		</g>
	</g>
	<g>
		<g>
			<polygon class="st31" points="125.1,49.3 131.2,82.6 178.6,74.1 172.5,40.8 			"/>
			<polygon class="st32" points="126.4,49.9 132.2,81.6 177.3,73.5 171.5,41.8 			"/>
			<g>
				
					<rect x="129.9" y="45.7" transform="matrix(0.9841 -0.1775 0.1775 0.9841 -8.4147 27.8822)" class="st33" width="43.4" height="30.5"/>
				
					<rect x="129.9" y="45.7" transform="matrix(0.9841 -0.1775 0.1775 0.9841 -8.4147 27.8822)" class="st1" width="43.4" height="30.5"/>
				<g>
					<g>
						<g>
							<path class="st34" d="M168.9,72.5l-18.8-12.3c-0.4-0.3-1.1-0.1-1.4,0.4L140.4,78L168.9,72.5z"/>
							<path class="st34" d="M175.7,72.1l-1.1-6.2l-13.9-11.3c-0.3-0.3-0.9-0.2-1.1,0.2l-10.1,21.9L175.7,72.1z"/>
						</g>
					</g>
				</g>
				<circle class="st0" cx="141.9" cy="58.1" r="4.6"/>
				<g>
					
						<rect x="129.9" y="45.7" transform="matrix(0.9841 -0.1775 0.1775 0.9841 -8.4147 27.8822)" class="st35" width="43.4" height="30.5"/>
				</g>
				<g>
					<path class="st0" d="M167.8,45.7l4.3,23.9l-36.6,6.6l-4.3-23.9L167.8,45.7 M127.6,49.8l5.5,30l42.8-7.7l-5.5-30L127.6,49.8z"/>
				</g>
			</g>
		</g>
		<g>
			<path class="st19" d="M101.2,26.5c0,5.9,1.5,11.7,6.6,17.8c1.2,1.4,2.1,3.1,2.1,5v6.3l3.1-5.3c0.5-0.9,1.3-2,2.7-1.8
				c4.7,0.7,9.1,1.8,13.9,1.8c18.4,0,31.3-9.1,31.3-22.2c0-8.1-3.8-26.1-36.2-24.6C109.2,4.3,101.2,14.9,101.2,26.5z"/>
			<path class="st36" d="M101.2,26.5c0,5.9,1.5,11.7,6.6,17.8c1.2,1.4,2.1,3.1,2.1,5v6.3l3.1-5.3c0.5-0.9,1.3-2,2.7-1.8
				c4.7,0.7,9.1,1.8,13.9,1.8c18.4,0,31.3-9.1,31.3-22.2c0-8.1-3.8-26.1-36.2-24.6C109.2,4.3,101.2,14.9,101.2,26.5z"/>
			<path class="st37" d="M137.1,24.5h-20.6V21h20.6V24.5z"/>
			<path class="st37" d="M143.4,33h-26.9v-3.5h26.9V33z"/>
			<path class="st31" d="M198.3,58.6l-1.4-6.4c-0.1-0.3-0.4-0.6-0.7-0.6c-0.1,0-0.2,0-0.2,0c-4.6,1.7-9.7,2.7-14.8,2.7
				c-17.9,0-32.5-10.9-32.5-24.4c0-13.4,14.6-24.4,32.5-24.4c17.9,0,32.5,10.9,32.5,24.4c0,5.5-2.4,10.7-6.9,15.1
				c-0.9,0.8-1.5,1.8-1.8,2.9l-3.1,10.7L198.3,58.6z"/>
			<path class="st32" d="M199.1,56.5l-1.2-5.7c-0.2-0.8-0.9-1.4-1.7-1.4c-0.2,0-0.4,0-0.6,0.1c-4.4,1.7-9.4,2.6-14.5,2.6
				c-17.4,0-31.5-10.5-31.5-23.4c0-12.9,14.1-23.4,31.5-23.4c17.4,0,31.5,10.5,31.5,23.4c0,5.3-2.3,10.2-6.6,14.3
				c-1,1-1.7,2.1-2.1,3.4l-2.9,10l-1.1,0L199.1,56.5z"/>
			<path class="st33" d="M211.7,28.2c0,5.1-2.4,9.8-6.3,13.6c-1.1,1.1-1.9,2.4-2.4,3.8l-2.9,10l-1.2-5.7c-0.4-1.6-2.1-2.6-3.6-2
				c-4.2,1.6-9,2.5-14.1,2.5c-16.9,0-30.5-10-30.5-22.4c0-12.4,13.7-22.4,30.5-22.4C198,5.8,211.7,15.8,211.7,28.2z"/>
			<path class="st38" d="M150.6,28.2c0,4.7,1.9,9,5.3,12.5c3.2-3.5,4.9-7.8,4.9-12.6c0-3.4-0.7-8.7-4-13.5
				C152.9,18.4,150.6,23.1,150.6,28.2z"/>
			<g>
				<path class="st39" d="M189.3,25.2h-20.6v-3.5h20.6V25.2z"/>
				<path class="st39" d="M195.6,33.6h-26.9v-3.5h26.9V33.6z"/>
			</g>
			<g>
				<path class="st40" d="M192,0.1c0.4-0.1,0.9-0.1,1.3-0.1c0.4,0.1,0.8,0.2,1.2,0.4c0.4,0.2,0.7,0.5,1,0.9c0.3,0.4,0.5,0.7,0.6,1.2
					c0.1,0.4,0.1,0.9,0.1,1.3c-0.1,0.4-0.2,0.9-0.4,1.3c-0.4,0.9-0.8,1.7-1.3,2.5c-0.5,0.8-0.9,1.6-1.4,2.5
					c-0.1,0.2-0.3,0.5-0.4,0.7c-0.3,0.6-0.6,1-0.8,1.4c-0.1,0.2-0.3,0.4-0.5,0.6c-0.1,0.1-0.2,0.2-0.3,0.3c-0.1,0.1-0.2,0.1-0.3,0.2
					s-0.3,0-0.4,0c-0.1,0-0.3-0.1-0.4-0.1c-0.3-0.1-0.4-0.4-0.5-0.6c-0.1-0.3,0-0.6,0.1-0.8l4.3-7.6c0.1-0.2,0.2-0.3,0.2-0.5
					c0-0.2,0-0.4,0-0.5c0-0.2-0.1-0.3-0.2-0.4c-0.1-0.1-0.2-0.2-0.4-0.3c-0.1-0.1-0.3-0.1-0.5-0.2c-0.2,0-0.3,0-0.5,0
					c-0.2,0-0.3,0.1-0.5,0.2c-0.1,0.1-0.3,0.2-0.3,0.4l-5,8.8c-0.2,0.3-0.3,0.7-0.4,1.1c-0.1,0.4,0,0.8,0.1,1.1
					c0.1,0.4,0.3,0.7,0.5,1c0.2,0.3,0.5,0.5,0.8,0.7c0.3,0.2,0.7,0.3,1,0.4c0.4,0.1,0.7,0,1.1-0.1c0.4-0.1,0.7-0.3,1-0.5
					c0.3-0.2,0.6-0.5,0.8-0.8l3.6-6.1c0.1-0.1,0.2-0.2,0.3-0.3c0.1-0.1,0.2-0.1,0.4-0.2c0.1,0,0.3,0,0.4,0s0.3,0.1,0.4,0.1
					c0.1,0.1,0.2,0.2,0.3,0.3c0.1,0.1,0.1,0.2,0.2,0.4c0,0.1,0,0.3,0,0.4c0,0.1-0.1,0.3-0.1,0.4l-3.6,6c-0.3,0.6-0.8,1-1.3,1.4
					c-0.5,0.4-1.1,0.7-1.7,0.8c-0.6,0.2-1.3,0.2-1.9,0.1s-1.2-0.3-1.8-0.6c-0.6-0.3-1-0.7-1.4-1.3c-0.4-0.5-0.7-1.1-0.9-1.7
					c-0.2-0.6-0.2-1.3-0.1-1.9s0.3-1.3,0.6-1.8l5-8.9c0.2-0.4,0.5-0.7,0.9-1C191.2,0.4,191.6,0.2,192,0.1z"/>
			</g>
		</g>
	</g>
</g>
<path class="st36" d="M148,153.7c6-10,9.4-21.8,9.4-34.3S154,95.1,148,85.1c-5.6,10.4-9.4,21.8-9.4,34.3S142,143.6,148,153.7z"/>
</svg>
