
<svg xmlns="http://www.w3.org/2000/svg" viewBox="0 0 256.5194 239.1671">
  <path fill="#FFD590" d="M10.4164 0h111.5748v230.817H10.4164z"/>
  <path fill="#F7B548" d="M106.0731 206.3406H75.849v-71.8809h30.2241v71.8809zm-27.2251-3h24.2251v-65.8809H78.848v65.8809z"/>
  <path fill="#FFE5B9" d="M106.0731 206.3406H75.849v-71.8808l2.999 3.1093v65.7715h24.1929z"/>
  <path fill="#F7B548" d="M63.9979 42.3851H33.7738V12.3953h30.2241v29.9898zM36.7728 39.386h24.2261V15.3943H36.7728V39.386zM64.0487 123.2H33.723V51.2181h30.3257V123.2zm-27.2251-3.1011h24.1245V54.3187H36.8236v65.7802z"/>
  <path fill="#FFE5B9" d="M64.0703 42.3851H33.7738l-.0508-29.9898 3.0498 2.9951V39.386h24.2031zM64.0703 123.1492H33.7738l-.0508-71.8804 3.0498 3.1089v65.772h24.1934z"/>
  <path fill="#F7B548" d="M63.9979 206.3406H33.7738v-71.8809h30.2241v71.8809zm-27.2251-3h24.2261v-65.8809H36.7728v65.8809zM106.0731 42.3851H75.849V12.3953h30.2241v29.9898zM78.848 39.386h24.2251V15.3943H78.848V39.386zM106.0731 123.1492H75.849V51.2688h30.2241v71.8804zm-27.2251-2.9995h24.2251V54.2679H78.848v65.8818z"/>
  <path fill="#FFE5B9" d="M106.145 42.3851H75.849l-.0508-29.9898 3.0498 2.9951V39.386h24.2026zM106.145 123.1492H75.849l-.0508-71.8804 3.0498 3.1089v65.772h24.1929zM63.9979 206.3406H33.7738v-71.8808l2.999 3.1093v65.7715h24.1934z"/>
  <path fill="#C8C6C4" d="M18.2363 101.724h6.0939c1.1783 0 2.1336.9552 2.1336 2.1336v23.1018c0 1.1783-.9552 2.1336-2.1336 2.1336h-6.0939c-1.1783 0-2.1336-.9552-2.1336-2.1336v-23.1018c0-1.1783.9552-2.1336 2.1336-2.1336z"/>
  <circle cx="21.2828" cy="115.4085" r="3.8691" fill="#B3AFAB"/>
  <g>
    <path fill="#9B643D" d="M97.067 78.5321c-.6621-1.4745 1.7348-8.0835 1.7348-8.0835.1062-1.0171-.418-1.9963-1.3233-2.4719l-4.2286-2.2213c-.4576-.2404-1.0234-.0694-1.2714.3842l-1.5923 2.913c-.2027.3709-.1351.8312.1658 1.128l.8201.8092c1.3149.8442-.6453 3.9955-.7162 5.7639s2.6723 3.2176 3.5878 5.2826c1.9666.8765 3.9031-1.0993 2.8233-3.5042z"/>
    <radialGradient id="a" cx="137.8508" cy="145.1062" r="23.2953" gradientTransform="translate(0 -38)" gradientUnits="userSpaceOnUse">
      <stop offset="0" stop-color="#8b8cc4"/>
      <stop offset=".0955" stop-color="#9394c8"/>
      <stop offset=".4433" stop-color="#aeaed6"/>
      <stop offset=".7556" stop-color="#bdbede"/>
      <stop offset="1" stop-color="#c3c3e1"/>
    </radialGradient>
    <path fill="url(#a)" d="M122.2055 105.3345c13.2137-.8622 19.4427-13.9145 19.4427-13.9145l2.4625-28.3069s-10.1938 2.4138-16.8724 11.1274c-5.1472 6.7157-7.5303 14.9684-15.1172 15.7354-9.7366.9843-15.1613-11.8056-15.1613-11.8056l-3.3897 2.8099c0-.0001 7.8805 25.7085 28.6354 24.3543z"/>
    <path fill="#9B643D" d="M96.9598 78.1703l-3.3897 2.8099s3.8484 12.5232 13.2299 19.6271l2.1158-10.809c-7.7125-1.6358-11.956-11.628-11.956-11.628z"/>
    <g>
      <ellipse cx="150.3591" cy="85.4614" fill="#C3C3E1" rx="22.0771" ry="23.3835"/>
      <linearGradient id="b" x1="169.7391" x2="140.8286" y1="213.8871" y2="213.0492" gradientTransform="translate(0 -38)" gradientUnits="userSpaceOnUse">
        <stop offset="0" stop-color="#33312d"/>
        <stop offset=".2677" stop-color="#43413d"/>
        <stop offset=".7098" stop-color="#585552"/>
        <stop offset="1" stop-color="#605d5a"/>
      </linearGradient>
      <path fill="url(#b)" d="M134.5377 179.1793c-4.6562-27.8802-4.7773-46.0253-4.7773-48.0349s.0497-13.4666 12.8464-14.6583c10.3438-.9633 14.1503 6.8208 14.1232 12.8788-.0452 10.1277-1.2752 27.1432-2.1218 44.3619-1.3847 28.1635-3.9906 56.8702-3.9906 56.8702l-.017.0018c-.0523 1.8491-1.5459 3.3425-3.4437 3.3819-1.9716.0409-2.0281-1.5018-2.1122-3.449-2.3861-13.0962-8.204-37.5628-10.507-51.3524z"/>
      <path fill="#9B643D" d="M144.8682 229.5755h5.8405l-.0536 4.2451c-.0402.8215-.0949 2.9498-3.0795 2.9498s-10.0297.0373-10.0297.0373c-.9604 0-2.5949-1.2634-.1383-2.4034 2.2529-1.0454 5.0933-2.2989 6.0026-2.8124 1.4855-.8388 1.458-2.0164 1.458-2.0164z"/>
      <linearGradient id="c" x1="154.0079" x2="142.0383" y1="272.2859" y2="272.4319" gradientTransform="translate(0 -38)" gradientUnits="userSpaceOnUse">
        <stop offset="0"/>
        <stop offset=".3621" stop-color="#191816"/>
        <stop offset=".7388" stop-color="#2c2a27"/>
        <stop offset=".9994" stop-color="#33312d"/>
      </linearGradient>
      <path fill="url(#c)" d="M150.6638 233.6844l-.0025.1335c-.0422.8275-.0951 2.9497-3.0849 2.9497s-10.0288.0401-10.0288.0401c-.9611 0-2.5925-1.268-.142-2.4025 1.7771-.8143 3.8778-1.7614 5.1646-2.3836 2.1101.654 4.7041 1.6228 5.304 1.6628.56.0267 1.8683.0134 2.7896 0z"/>
      <path fill="#605D5A" d="M148.0088 172.8071c-2.52-24.1388-4.2785-38.3988-4.2785-38.3988s-.1968-15.3325 12.5898-16.5222c10.3357-.9617 15.0639 7.1383 15.0066 13.1455-.0959 10.0429-1.8419 26.5328-2.7736 43.6078-1.5239 27.9284-4.8053 56.3962-4.8053 56.3962l-.0169.0018c-.0615 1.8336-1.5607 3.3155-3.4563 3.3558-1.9693.0418-3.6177-1.4869-3.692-3.4177-2.3176-12.9852-6.9715-42.8202-8.5738-58.1684z"/>
      <path fill="#9B643D" d="M156.5827 230.9755l7.1652.0602.1056 4.185c-.0309.8214-.0615 2.9498-3.046 2.9498s-10.6792.0373-10.6792.0373c-.9604 0-2.6093-1.2634-.1655-2.4034 2.2411-1.0454 5.0947-2.2547 5.9707-2.8124 1.008-.6419.6492-2.0165.6492-2.0165z"/>
      <path fill="#33312D" d="M163.8492 235.0844l-.001.1335c-.0194.8275-.0617 2.9497-3.0381 2.9497-2.9898 0-10.7898.0401-10.7898.0401-.961 0-2.6068-1.268-.1693-2.4025 1.7143-.8009 3.9013-1.6951 5.1738-2.3224 2.1176.6407 5.2208 1.5616 5.8078 1.6016.6138.0267 2.1088.0133 3.0166 0z"/>
      <radialGradient id="d" cx="185.1692" cy="150.1282" r="34.2219" gradientTransform="translate(0 -38)" gradientUnits="userSpaceOnUse">
        <stop offset="0" stop-color="#8b8cc4"/>
        <stop offset=".0955" stop-color="#9394c8"/>
        <stop offset=".4433" stop-color="#aeaed6"/>
        <stop offset=".7556" stop-color="#bdbede"/>
        <stop offset="1" stop-color="#c3c3e1"/>
      </radialGradient>
      <path fill="url(#d)" d="M128.282 85.4613l1.4784 45.6831h41.2604l1.4154-45.6831z"/>
    </g>
    <path fill="#9B643D" d="M168.6806 143.3224s-.2579 4.6662-1.1228 7.5754c-1.0986 3.6951-3.297 8.1334-5.0884 7.7621-.0524.0701-.441.495-.8243.791-.5345.4128-1.6466.8172-1.2359-.8232.5233-2.0899 1.8385-7.3435 1.8385-7.3435s-1.9867 2.2277-2.3446 2.4813c-.8562.6066-1.9875-.179-1.1299-1.3805.8576-1.2015 2.0871-4.3163 3.2621-6.3185 1.2611-2.1487 2.8129-3.3465 2.8129-3.3465l3.8324.6024z"/>
    <path fill="#9B643D" d="M163.6817 143.8377c1.7948 2.6443 4.2656 2.7686 4.9072 1.0892.2742-4.2083 5.7431-14.4432 7.82-22.2737 0 0-4.7993-4.6184-11.8418-.6661.1325 8.3758.9427 19.558-.8854 21.8506z"/>
    <path fill="#C3C3E1" d="M154.6557 62.2638c23.7617 5.9228 25.5366 31.5148 25.1231 39.8632-.3357 6.7782-1.406 14.6645-3.3699 20.5262l-11.8418-.6661s-.5043-16.1018-10.5013-33.0881c-7.2907-12.3879-1.9298-26.8689.5899-26.6352z"/>
    <radialGradient id="e" cx="148.959" cy="85.4163" r="10.3482" gradientTransform="translate(0 -38)" gradientUnits="userSpaceOnUse">
      <stop offset="0" stop-color="#594539"/>
      <stop offset=".1086" stop-color="#644a3a"/>
      <stop offset=".4713" stop-color="#82583b"/>
      <stop offset=".7813" stop-color="#94613d"/>
      <stop offset="1" stop-color="#9b643d"/>
    </radialGradient>
    <path fill="url(#e)" d="M144.2585 41.4552s.1477 17.459.1477 18.6423c0 1.3054-.1099 2.9065-1.7768 3.4547.5017.9925 3.0461 2.5822 5.6401 2.0756 2.6455-.5166 6.3022-2.8272 12.1465-1.3755-1.4615-1.5882-1.5053-6.1401-1.5053-6.1401l-.1332-16.6616-14.519.0046z"/>
    <path fill="#33312D" d="M141.8237 38.0215c1.3049-.1098 7.353-2.8383 9.9652-2.9309 3.1775-.1126 4.0408 1.5486 4.0408 1.5486s2.351-8.7192-5.5128-8.2702c-2.3044.1316-6.7023.8574-8.4186.407-1.808-.4745-4.9891-2.4566-7.4888-.6196-2.2575 1.6591-2.7663 5.0516-1.027 7.3653 1.628 2.1657 6.5298 2.6606 8.4412 2.4998z"/>
    <path fill="#33312D" d="M158.8469 51.3972c-.079-3.1336 1.8026-9.7226 1.6332-15.3275-.0779-2.5775-1.7746-4.0234-3.9912-4.0357l-14.7791-.082c-2.2158-.0123-4.0219 2.624-4.0342 4.8398 0 0 13.2518 3.1103 17.4019 10.3707.2074 2.4273 1.871 4.1714 3.7694 4.2347z"/>
    <circle cx="152.3201" cy="46.3112" r="3.348" fill="#9B643D"/>
    <path fill="#33312D" d="M141.1448 59.0262c6.067.0337 11.0125-4.8573 11.0462-10.9243l.037-6.6609c.0144-2.5999-2.0815-4.7192-4.6814-4.7336l-11.5779-.0643c-.2092-.0012-.3798.1675-.3809.3767l-.0904 16.2958c-.0174 3.1236 2.524 5.6933 5.6474 5.7106z"/>
    <path fill="#9B643D" d="M135.5097 51.162l8.466.047c1.9028.0106 3.4539-1.5234 3.4645-3.4263l.0409-7.3683c.0123-2.2232-1.7799-4.0355-4.0032-4.0479l-7.2345-.0401c-.3597-.002-.653.288-.655.6478l-.0787 14.1878z"/>
    <path fill="none" d="M141.1448 59.0262c6.067.0337 11.0125-4.8573 11.0462-10.9243l.037-6.6609c.0144-2.5999-2.0815-4.7192-4.6814-4.7336l-11.5779-.0643c-.2092-.0012-.3798.1675-.3809.3767l-.0904 16.2958c-.0174 3.1236 2.524 5.6933 5.6474 5.7106z"/>
    <path fill="#33312D" d="M142.4844 51.9184c.0146-.4517-.1064-.8906-.3477-1.2637-.6572-1.0278-2.0293-1.332-3.0771-.6641-.4873.3125-.7402.4629-.9883.543-.2891.1001-.6758.1641-1.2842.2656-.4287.0698-.8242.2627-1.1465.5601-.0497.046-.0883.1002-.1332.1498l-.01 1.8064c-.0024.44.0508.8671.1444 1.2795.7252.7156 1.7067 1.1095 2.7371 1.1095.4639 0 .9365-.0776 1.3965-.2378 1.5478-.5317 2.6611-1.9902 2.709-3.5483z"/>
    <radialGradient id="f" cx="138.5843" cy="190.3354" r="8.2316" gradientTransform="matrix(1 0 0 -1 0 242)" gradientUnits="userSpaceOnUse">
      <stop offset="0" stop-color="#594539"/>
      <stop offset=".1086" stop-color="#644a3a"/>
      <stop offset=".4713" stop-color="#82583b"/>
      <stop offset=".7813" stop-color="#94613d"/>
      <stop offset="1" stop-color="#9b643d"/>
    </radialGradient>
    <path fill="url(#f)" d="M140.5278 51.8572c-.0229.7565-.6087 1.4898-1.3884 1.7576-.7692.2677-1.6515.1162-2.1825-.4556-.0964-.1039-.0904-.2662.0134-.3626.0383-.0356.0846-.0572.1326-.0651l.0269-.0045c.6605-.1102 1.1355-.1885 1.5803-.3421.4473-.1434.8297-.3764 1.4063-.7454l.0128-.0082c.1205-.0771.2807-.0419.3578.0786.0293.0456.0424.0969.0408.1473z"/>
    <path fill="none" d="M141.1448 59.0262c6.067.0337 11.0125-4.8573 11.0462-10.9243l.037-6.6609c.0144-2.5999-2.0815-4.7192-4.6814-4.7336l-11.5779-.0643c-.2092-.0012-.3798.1675-.3809.3767l-.0904 16.2958c-.0174 3.1236 2.524 5.6933 5.6474 5.7106z"/>
    <path fill="none" d="M141.1448 59.0262c6.067.0337 11.0125-4.8573 11.0462-10.9243l.037-6.6609c.0144-2.5999-2.0815-4.7192-4.6814-4.7336l-11.5779-.0643c-.2092-.0012-.3798.1675-.3809.3767l-.0904 16.2958c-.0174 3.1236 2.524 5.6933 5.6474 5.7106z"/>
    <g>
      <path fill="#9B643D" d="M136.5444 49.6692c.0069.2764-.2736.4637-.5286.3568-.2048-.0858-.4187-.161-.5479-.2462l-1.2644-.8334c-.5166-.3405-.6628-1.0334-.3278-1.5535l1.1698-1.8166c.3272-.5082.5023-1.0993.5047-1.7037l.8498.0178.1444 5.7788z"/>
    </g>
    <ellipse cx="138.499" cy="44.7371" fill="#33312D" rx="1.4562" ry=".7889" transform="rotate(-89.685 138.4983436 44.7357027)"/>
    <path fill="#33312D" d="M154.1107 42.9632h-4.0751c-3.4252 0-6.2019-2.7767-6.2019-6.2019v-1.5455h10.2771l-.0001 7.7474z"/>
  </g>
  <g>
    <linearGradient id="g" x1="197.5458" x2="219.8392" y1="151.5115" y2="141.1853" gradientTransform="scale(1 -1) rotate(4.41 2831.6709448 117.4130142)" gradientUnits="userSpaceOnUse">
      <stop offset="0" stop-color="#33312d"/>
      <stop offset=".0587" stop-color="#38332e"/>
      <stop offset=".3557" stop-color="#4a3d34"/>
      <stop offset=".6642" stop-color="#554338"/>
      <stop offset=".9996" stop-color="#594539"/>
    </linearGradient>
    <path fill="url(#g)" d="M216.0449 42.6249c6.5102 7.9485-5.9149 21.3579 1.3178 25.3069 0 0-8.0557 3.7531-11.7697-2.4078-3.3655-5.5829.9263-10.4763.5135-16.4134-.3093-4.4501-5.4959-6.9409-5.4959-6.9409s9.144-7.2247 15.4343.4552z"/>
    <ellipse cx="199.0503" cy="53.7203" fill="#59453C" rx="12.6561" ry="13.0638" transform="rotate(-4.41 199.0586584 53.722669)"/>
    <circle cx="202.8526" cy="131.0483" r="20.8467" fill="#B3AFAB"/>
    <path fill="#BF8F68" d="M220.9486 132.1249c3.9714 9.0326-14.1923 98.6283-14.1923 98.6283l-5.6171-1.6677s.3618-89.5888.7213-94.2309c.8368-10.8096 15.1167-11.7623 19.0881-2.7297z"/>
    <path fill="#797673" d="M203.9563 230.1747l-.1067 6.1678c-.0111.6402-.5468 1.1062-1.1799 1.0263-.5594-.0706-1.0092-.5475-1.052-1.1153l-.4785-6.3436 2.8171.2648z"/>
    <path fill="#BE906B" d="M212.4197 238.1893c-1.9131-.2056-10.4793-2.2896-11.2336-7.7455-.2074-1.4997.0667-3.2608.0667-3.2608.1612-1.0978 1.2359-1.7432 2.365-1.7109 1.6358.0467 2.5031 1.1327 2.8549 2.7572.9138 4.2196 7.4321 8.1039 7.4321 8.1039.8073.4901.428 2.0616-1.4851 1.8561z"/>
    <path fill="#797673" d="M201.1226 229.0855c1.3611 2.7521 8.3512 6.5725 11.1113 6.1212.9703.7118 1.6735 1.1259 1.6735 1.1259.7993.4918.4296 2.0578-1.4904 1.8507-1.9061-.1941-10.4784-2.2777-11.2249-7.739-.0578-.4529-.0775-.9188-.0695-1.3588zM193.7802 230.5345l-.9918 6.2838c-.0888.5624-.5758 1.0013-1.1391 1.0262-.6375.0283-1.1336-.4797-1.0927-1.1187l.3943-6.1561 2.8293-.0352z"/>
    <path fill="#BF8F68" d="M184.6071 132.2945c-4.9027 9.0118 4.022 98.4017 4.022 98.4017l5.244-1.6108s9.4215-89.4359 9.5408-94.0675c.2778-10.7847-13.904-11.7352-18.8068-2.7234z"/>
    <path fill="#BE906B" d="M181.0909 236.3332s6.5183-3.8843 7.4321-8.1039c.3518-1.6246 1.2191-2.7105 2.8549-2.7572 1.1291-.0323 2.2038.6131 2.365 1.7109 0 0 .2741 1.7611.0667 3.2608-.7543 5.456-9.3205 7.5399-11.2336 7.7455-1.9131.2055-2.2924-1.366-1.4851-1.8561z"/>
    <path fill="#797673" d="M193.8036 230.4443c-.7466 5.4613-9.3189 7.5449-11.2249 7.739-1.92.2071-2.2896-1.3589-1.4904-1.8507 0 0 .7032-.414 1.6735-1.1259 2.7601.4512 9.7502-3.3692 11.1113-6.1212.008.44-.0117.9059-.0695 1.3588z"/>
    <linearGradient id="h" x1="207.5151" x2="187.0165" y1="207.3329" y2="208.0553" gradientTransform="translate(0 -38)" gradientUnits="userSpaceOnUse">
      <stop offset="0" stop-color="#797673"/>
      <stop offset=".0685" stop-color="#84817d"/>
      <stop offset=".2389" stop-color="#999592"/>
      <stop offset=".4294" stop-color="#a8a4a0"/>
      <stop offset=".6544" stop-color="#b0aca8"/>
      <stop offset="1" stop-color="#b3afab"/>
    </linearGradient>
    <path fill="url(#h)" d="M184.174 121.9574c-8.6013 16.9029-5.2728 53.8664-4.6635 78.288.2922 11.7124.2052 19.9669.2052 19.9669l15.1742-.1137s7.4257-32.2745 8.4419-46.9052c1.0163-14.6307 1.5873-47.9011 1.5873-47.9011s-9.462-10.2541-20.7451-3.3349z"/>
    <path fill="#B3AFAB" d="M222.7572 125.1728c7.002 16.3269-5.2582 95.0724-5.2582 95.0724l-16.3805-.114-.2306-95.0246c.0001-.0001 11.3014-6.869 21.8693.0662z"/>
    <radialGradient id="i" cx="187.9169" cy="131.8335" r="12.9806" gradientTransform="translate(0 -38)" gradientUnits="userSpaceOnUse">
      <stop offset="0" stop-color="#6e6fac"/>
      <stop offset=".3839" stop-color="#7677b2"/>
      <stop offset=".969" stop-color="#8b8cc4"/>
      <stop offset=".9723" stop-color="#8b8cc4"/>
    </radialGradient>
    <path fill="url(#i)" d="M194.7539 73.2931s-2.0245 1.2214-11.6931 4.6057c-9.8926 3.4628-16.7427 9.9899-11.8595 17.6416 2.9109 4.5614 10.6117 4.4854 10.6117 4.4854l.5855-8.77 9.6247 4.2845 2.7307-22.2472z"/>
    <radialGradient id="j" cx="220.6987" cy="134.7354" r="12.5729" gradientTransform="translate(0 -38)" gradientUnits="userSpaceOnUse">
      <stop offset="0" stop-color="#6e6fac"/>
      <stop offset=".1579" stop-color="#7576b2"/>
      <stop offset=".6167" stop-color="#8586bf"/>
      <stop offset=".9723" stop-color="#8b8cc4"/>
    </radialGradient>
    <path fill="url(#j)" d="M184.0878 121.9574h37.5296l-2.8207-6.8471c-1.8485-4.4872-2.1112-9.4707-.7445-14.1274l1.8234-6.2134c.0527-.1638.0975-.3304.1456-.4962l.2009-.6844h-.0249c.3419-1.3811.5432-2.8176.5432-4.3044 0-9.8792-8.0087-17.8879-17.8879-17.8879-9.8793 0-17.8879 8.0087-17.8879 17.8879 0 1.4868.2014 2.9232.5432 4.3044h-.02l.1619.5518c.0657.233.1292.4661.204.6951l1.803 6.1438c1.3671 4.6586 1.1036 9.6444-.747 14.1331l-2.8219 6.8447z"/>
    <path fill="#B3AFAB" d="M186.9098 115.1125l-2.9886 7.1958S192.2913 140 201.3122 140c9.0208 0 20.4718-17.6918 20.4718-17.6918l-2.9873-7.1982c-.6533-1.5858-1.0978-3.2351-1.3529-4.9085h-29.1793c-.2555 1.6744-.7007 3.3246-1.3547 4.911z"/>
    <radialGradient id="k" cx="200.4387" cy="140.3059" r="8.3774" gradientTransform="matrix(1 0 0 -1 0 204)" gradientUnits="userSpaceOnUse">
      <stop offset="0" stop-color="#9a6541"/>
      <stop offset="1" stop-color="#be906b"/>
    </radialGradient>
    <path fill="url(#k)" d="M206.9941 69.146v-8.1682h-8.33v8.1682c0 2.459-3.9102 4.1472-3.9102 4.1472l5.5408.3586c.6961 0 1.3023.4753 1.4683 1.1513l1.066 3.5081 1.1061-3.5199c.1704-.6703.7739-1.1395 1.4654-1.1395h6.1522c.0001-.0001-4.5586-2.0469-4.5586-4.5058z"/>
    <path fill="#BE906B" d="M207.3476 61.81l-2.7587.2128-.4055-5.2568 2.7587-.2128c1.4516-.112 2.7192.9741 2.8311 2.4257.1121 1.4516-.9739 2.7192-2.4256 2.8311zM189.4139 63.5333l2.7587-.2128-.4055-5.2568-2.7587.2128c-1.4516.112-2.5377 1.3795-2.4257 2.8311.1119 1.4517 1.3796 2.5377 2.8312 2.4257z"/>
    <path fill="#BE906B" d="M196.8641 45.5817c-5.3308.4113-9.319 5.066-8.9078 10.3969.5222 6.7694 5.1022 14.0925 10.9403 13.6421s8.8865-8.3619 8.3644-15.1313c-.4113-5.3308-5.066-9.3189-10.3969-8.9077z"/>
    <radialGradient id="l" cx="191.6493" cy="141.3453" r="3.9139" gradientTransform="scale(1 -1) rotate(4.41 2831.6709448 117.4130142)" gradientUnits="userSpaceOnUse">
      <stop offset="0" stop-color="#9b643d"/>
      <stop offset="1" stop-color="#bf8f68"/>
    </radialGradient>
    <path fill="url(#l)" d="M197.0328 54.8075l-5.9477.4588.8311 10.7743 5.9477-.4588-.8311-10.7743z"/>
    <path fill="#9A6541" d="M200.3099 65.5846c-.1324.2994-.3017.5253-.5254.7228-.2171.1989-.479.3497-.7592.4564-.5548.2203-1.2284.2168-1.7378-.1148-.164-.1067-.2103-.3262-.1036-.4902.0418-.0642.1008-.1104.167-.1364l.0369-.0146c.4792-.1888.8355-.2687 1.2197-.4007.1906-.062.3809-.1347.5819-.2112.1949-.0763.4176-.1683.6252-.2362l.0856-.028c.1754-.0575.3643.0382.4217.2138.0266.0815.02.1664-.012.2391z"/>
    <ellipse cx="193.1378" cy="59.3975" fill="#3A312E" rx=".8348" ry="1.5563" transform="rotate(-4.41 193.145623 59.4000384)"/>
    <ellipse cx="201.1977" cy="58.8199" fill="#3A312E" rx=".8348" ry="1.5563" transform="rotate(-4.41 201.2055842 58.822249)"/>
    <path fill="#BE906B" d="M195.4013 61.9947c.035.6985 1.8565 1.4104 2.373 2.4238 1.6456-2.1514-.3799-8.0498-.3799-8.0498s-.1699 2.3829-.8434 3.6133c-.5734 1.0473-1.1847 1.3142-1.1497 2.0127z"/>
    <path fill="#59453C" d="M201.1737 44.7939c-.2859 1.0875-1.7473 4.7535-4.6543 7.7418-2.8552 2.9351-6.9987 4.612-7.1587 7.6643-.2348 4.4801 3.3602 4.37 1.0984 9.4444 0 0 .3815-1.1144-1.6835-3.5499s-8.3878-8.1678-5.2111-15.5855c4.1607-9.716 17.6092-5.7151 17.6092-5.7151z"/>
    <path fill="#59453C" d="M199.2372 45.6895c-.7858 1.6108.4039 5.2363 4.8842 7.5525 3.4326 1.7746 3.0016 5.5879 3.0016 5.5879s3.0642-4.6514.6672-10.0349c-1.218-2.7357-6.3726-7.5749-8.553-3.1055z"/>
    <path fill="#BE906B" d="M172.0652 90.094c3.9016 9.7989 19.1949 2.6611 19.1949 2.6611l2.5049.7586c.2979.0903.6115.1174.9205.0798l3.8839-.4734c.389-.0474.7824.0408 1.1139.2496l3 1.8898c.8569.5398 1.9776-.0446 2.0256-1.0562l.0027-.0555-1.4163-2.3985c-.0938-.1588-.2163-.2986-.3614-.4123l-2.0483-1.6057c-.2563-.2009-.5769-.3016-.9021-.2834l-8.0643.452-10.1424-1.7587c-.0001-.0001-11.1365-1.6259-9.7116 1.9528z"/>
    <path fill="#4B4C75" d="M189.8778827 89.8060766l1.5985202-.063832.1440828 3.6082111-1.5985201.063832z"/>
    <ellipse cx="190.7783" cy="90.2831" fill="#6E6FAC" rx="1.7392" ry="1.0533" transform="rotate(-2.292 190.7709038 90.301171)"/>
    <ellipse cx="190.7519" cy="89.6249" fill="#8B8CC4" rx="1.7392" ry="1.0533" transform="rotate(-2.292 190.7440304 89.6414843)"/>
    <path fill="#8B8CC4" d="M182.9708 88.3481c-2.8091-.6685-8.2352-6.1103-10.305-4.4242-1.8992 1.5472-5.3188 6.7609-1.9524 12.7082 2.6655 4.7091 11.9267 3.3938 11.9267 3.3938l.3307-11.6778z"/>
    <path fill="#BF8F68" d="M223.866 132.2313l2.7756-.113s.8421 2.4839.829 5.3352c-.0101 2.2012-.8721 4.4269-1.3119 5.51-.2824.6955-.8363 1.3521-1.3242 1.1715-.57 1.5592-1.6965 1.2814-1.6895.7867l.1996-5.8673s-1.0191 2.2236-1.2584 2.5553c-.2814.3901-1.0679.5574-.9118-.3397.1319-.7579.4596-2.2224.6663-3.2872.7781-4.0082 2.0253-5.7515 2.0253-5.7515z"/>
    <path fill="#BF8F68" d="M220.2274 107.1724c-2.8363-9.856 7.5681-15.9792 9.0523-.7083 1.251 12.8713-2.4397 25.4733-2.8543 27.6206h-3.4793c.0002 0 .6211-15.3066-2.7187-26.9123z"/>
    <path fill="#8B8CC4" d="M220.2274 107.1724c-2.8363-9.856-6.7439-14.7072-11.9695-20.5222-5.2255-5.815-.6195-14.7949 3.3243-12.8506 9.2843 4.5772 18.4888 16.5522 20.8532 31.7118.6691 4.2903.1485 12.0329.1485 12.0329s-7.9903.0002-10.3617 0c-.4035-2.7885-1.2381-7.7422-1.9948-10.3719z"/>
  </g>
</svg>
