<svg
    xmlns="http://www.w3.org/2000/svg"
    viewBox="0 0 224 183"
    id="vector">
    <path
        id="path"
        d="M 165.189 138.095 C 166.214 144.125 162.234 149.83 156.31 150.836 L 33.188 171.755 C 27.259 172.762 21.62 168.682 20.597 162.662 L 3.467 62.226 L 148.059 37.66 L 165.189 138.095 Z"
        fill="#c8c6c4"/>
    <path
        id="path_1"
        d="M 143.561 43.396 C 143.561 43.396 10.394 66.11 10.479 66.593 L 23.888 142.586 C 24.089 142.839 34.719 166.489 69.808 161.071 C 83.358 157.133 153.871 135.175 167.807 142.425 C 157.059 123.628 143.561 43.396 143.561 43.396 Z"
        fill="#ffffff"/>
    <path
        id="path_2"
        d="M 132.48 10.64 L 9.359 31.565 C 3.43 32.573 -0.861 38.197 0.147 44.125 L 3.427 61.921 L 147.856 37.305 L 144.896 19.693 C 143.888 13.762 138.404 9.633 132.48 10.64 Z"
        fill="#bdbde6"/>
    <path
        id="path_3"
        d="M 2.432 56.442 L 4.71 69.598 L 149.506 44.968 L 147.228 31.812 Z"
        fill="#e2e2f6"/>
    <path
        id="path_4"
        d="M 22.47 20.757 C 22.055 18.315 19.741 16.679 17.299 17.094 C 14.863 17.508 13.214 19.822 13.629 22.26 L 15.046 30.6 L 23.887 29.097 L 22.47 20.757 Z"
        fill="#e2e2f6"/>
    <path
        id="path_5"
        d="M 71.65 12.242 C 71.235 9.8 68.921 8.164 66.479 8.579 C 64.043 8.993 62.394 11.307 62.809 13.745 L 64.252 22.236 L 73.093 20.733 L 71.65 12.242 Z"
        fill="#e2e2f6"/>
    <path
        id="path_6"
        d="M 120.829 3.728 C 120.414 1.286 118.1 -0.35 115.658 0.065 C 113.222 0.479 111.573 2.793 111.988 5.231 L 113.457 13.874 L 122.298 12.371 L 120.829 3.728 Z"
        fill="#e2e2f6"/>
    <path
        id="path_7"
        d="M 28.068 77.142 L 47.649 73.752 L 50.847 92.224 L 31.266 95.614 Z"
        fill="#eaeaea"/>
    <path
        id="path_8"
        d="M 32.302 101.596 L 51.883 98.206 L 55.081 116.678 L 35.5 120.068 Z"
        fill="#eaeaea"/>
    <path
        id="path_9"
        d="M 36.433 125.454 L 56.014 122.064 L 59.212 140.536 L 39.631 143.926 Z"
        fill="#ee8f94"/>
    <path
        id="path_10"
        d="M 55.207 72.443 L 74.788 69.053 L 77.986 87.525 L 58.405 90.915 Z"
        fill="#ee8f94"/>
    <path
        id="path_11"
        d="M 59.441 96.898 L 79.022 93.508 L 82.22 111.98 L 62.639 115.37 Z"
        fill="#f7c6c8"/>
    <path
        id="path_12"
        d="M 63.571 120.756 L 83.152 117.366 L 86.35 135.838 L 66.769 139.228 Z"
        fill="#eaeaea"/>
    <path
        id="path_13"
        d="M 82.262 67.759 L 101.843 64.369 L 105.041 82.841 L 85.46 86.231 Z"
        fill="#eaeaea"/>
    <path
        id="path_14"
        d="M 86.496 92.214 L 106.077 88.824 L 109.275 107.296 L 89.694 110.686 Z"
        fill="#eaeaea"/>
    <path
        id="path_15"
        d="M 90.626 116.072 L 110.207 112.682 L 113.405 131.154 L 93.824 134.544 Z"
        fill="#f7c6c8"/>
    <path
        id="path_16"
        d="M 109.345 63.071 L 128.926 59.681 L 132.124 78.153 L 112.543 81.543 Z"
        fill="#eaeaea"/>
    <path
        id="path_17"
        d="M 113.579 87.525 L 133.16 84.135 L 136.358 102.607 L 116.777 105.997 Z"
        fill="#ee8f94"/>
    <path
        id="path_18"
        d="M 117.709 111.383 L 137.29 107.993 L 140.488 126.465 L 120.907 129.855 Z"
        fill="#eaeaea"/>
    <path
        id="path_19"
        d="M 59.32 147.575 C 52.976 152.7 45.848 154.436 37.705 153.383 C 27.927 152.12 23.888 142.586 23.888 142.586 C 24.761 147.578 30.977 161.361 44.824 163.591 C 51.413 164.652 59.9 165.586 70.712 160.847 C 61.749 160.839 59.373 147.737 59.32 147.575 Z"
        fill="#edebe9"/>
    <path
        id="path_20"
        d="M 131.802 117.608 L 124.541 110.827 C 123.486 109.841 121.831 109.898 120.846 110.953 L 120.846 110.953 C 119.86 112.008 119.917 113.663 120.972 114.648 L 128.233 121.429 L 131.802 117.608 Z"
        fill="#6264a7"/>
    <path
        id="path_21"
        d="M 190.09 162.396 L 143.498 121.14 C 142.897 120.608 141.978 120.664 141.446 121.265 L 133.756 129.95 C 133.013 130.789 133.092 132.083 133.931 132.826 L 180.086 173.695 C 183.177 176.432 187.9 176.145 190.637 173.054 L 190.731 172.947 C 193.467 169.857 193.181 165.133 190.09 162.396 Z"
        fill="#6264a7"/>
    <path
        id="path_22"
        d="M 123.298 117.445 L 127.309 112.862 L 142.849 120.349 L 190.036 162.349 L 180.031 173.647 L 132.684 131.977 Z"
        fill="#b3afab"/>
    <path
        id="path_23"
        d="M 188.333 181.279 C 191.092 183.745 195.327 183.535 197.791 180.81 L 199.018 179.453 C 201.437 176.779 201.245 172.68 198.629 170.197 C 200.114 165.132 198.671 159.414 194.445 155.637 L 182.204 144.698 C 181.373 143.953 180.099 144.021 179.358 144.839 C 178.617 145.659 178.688 146.925 179.519 147.666 L 191.759 158.605 C 194.243 160.825 195.376 163.979 195.121 167.045 L 175.966 149.907 L 165.908 161.335"
        fill="#797673"/>
    <path
        id="path_24"
        d="M 182.956 81.115 C 188.846 82.374 194.986 81.732 200.488 79.282 C 205.99 76.832 210.575 72.698 213.579 67.478 C 216.584 62.258 217.856 56.216 217.211 50.228 C 216.566 44.239 214.036 38.608 209.989 34.147 C 205.942 29.687 200.582 26.624 194.684 25.402 C 188.794 24.143 182.654 24.785 177.152 27.235 C 171.65 29.685 167.065 33.819 164.061 39.039 C 161.056 44.259 159.784 50.301 160.429 56.289 C 161.074 62.278 163.604 67.909 167.651 72.37 C 171.698 76.83 177.058 79.893 182.956 81.115 Z"
        fill="#ffffff"/>
    <path
        id="path_25"
        d="M 193.99 28.635 C 207.581 31.496 216.311 44.88 213.45 58.471 C 210.589 72.062 197.205 80.792 183.614 77.931 C 170.023 75.07 161.293 61.686 164.154 48.095 C 167.015 34.504 180.399 25.774 193.99 28.635 L 193.99 28.635 M 195.339 22.227 C 178.187 18.617 161.356 29.594 157.746 46.746 C 154.136 63.898 165.113 80.729 182.265 84.339 C 199.417 87.949 216.248 76.972 219.858 59.82 C 223.468 42.668 212.491 25.837 195.339 22.227 L 195.339 22.227 Z"
        fill="#c8c6c4"/>
    <path
        id="path_26"
        d="M 215.87 20.861 L 223.705 29.499 C 225.115 31.053 224.997 33.456 223.443 34.865 L 223.443 34.865 C 221.889 36.275 219.486 36.157 218.077 34.603 L 210.242 25.965 C 208.832 24.411 208.95 22.008 210.504 20.599 L 210.504 20.599 C 212.057 19.189 214.46 19.307 215.87 20.861 Z"
        fill="#b3afab"/>
    <path
        id="path_27"
        d="M 188.802 53.283"
        fill="#b3afab"/>
    <path
        id="path_28"
        d="M 177.101 12.7 L 166.449 17.447 C 164.533 18.301 163.671 20.547 164.525 22.463 L 164.525 22.463 C 165.379 24.379 167.625 25.241 169.541 24.387 L 180.193 19.64 C 182.109 18.786 182.971 16.54 182.117 14.624 L 182.117 14.624 C 181.263 12.708 179.017 11.846 177.101 12.7 Z"
        fill="#b3afab"/>
    <path
        id="path_29"
        d="M 188.802 53.283"
        fill="#b3afab"/>
    <path
        id="path_30"
        d="M 203.691 88.5 L 201.268 81.093 C 200.616 79.099 198.47 78.011 196.476 78.663 L 196.476 78.663 C 194.482 79.315 193.394 81.461 194.046 83.455 L 196.469 90.862 C 197.121 92.856 199.267 93.944 201.261 93.292 L 201.261 93.292 C 203.256 92.639 204.344 90.494 203.691 88.5 Z"
        fill="#c8c6c4"/>
    <path
        id="path_31"
        d="M 193.936 81.492 C 193.803 82.124 193.833 82.798 194.046 83.458 L 194.399 84.526 C 196.914 84.08 199.35 83.327 201.661 82.305 L 201.266 81.092 C 200.62 79.095 198.472 78.01 196.473 78.665 C 195.135 79.097 194.205 80.212 193.936 81.492 Z"
        fill="#b3afab"/>
    <path
        id="path_32"
        d="M 188.802 53.283"
        fill="#b3afab"/>
    <path
        id="path_33"
        d="M 160.98 79.509 L 166.184 73.707 C 167.585 72.145 169.987 72.014 171.549 73.415 L 171.549 73.415 C 173.111 74.816 173.242 77.218 171.841 78.78 L 166.637 84.582 C 165.236 86.144 162.834 86.275 161.272 84.874 L 161.272 84.874 C 159.71 83.473 159.579 81.071 160.98 79.509 Z"
        fill="#c8c6c4"/>
    <path
        id="path_34"
        d="M 172.733 77.029 C 172.6 77.661 172.301 78.266 171.84 78.784 L 171.086 79.619 C 168.964 78.197 167.039 76.526 165.335 74.659 L 166.186 73.709 C 167.582 72.142 169.985 72.015 171.551 73.42 C 172.6 74.354 173.002 75.749 172.733 77.029 Z"
        fill="#b3afab"/>
    <path
        id="path_35"
        d="M 188.802 53.283"
        fill="#b3afab"/>
    <path
        id="path_36"
        d="M 198.264 63.726 C 197.671 63.726 197.074 63.528 196.58 63.122 L 185.874 54.311 L 189.695 36.162 C 189.996 34.728 191.402 33.811 192.837 34.113 C 194.27 34.415 195.188 35.821 194.886 37.255 L 191.729 52.257 L 199.952 59.025 C 201.083 59.956 201.245 61.628 200.315 62.759 C 199.79 63.396 199.03 63.726 198.264 63.726 Z"
        fill="#c3c3e1"/>
    <path
        id="path_37"
        d="M 97.668 105.428 C 97.214 105.428 96.765 105.296 96.379 105.041 L 88.011 99.515 C 86.934 98.804 86.637 97.353 87.348 96.276 C 88.059 95.199 89.509 94.901 90.588 95.614 L 96.955 99.819 L 104.511 87.733 C 105.196 86.637 106.638 86.306 107.733 86.989 C 108.828 87.674 109.161 89.116 108.476 90.211 L 99.651 104.329 C 99.317 104.864 98.781 105.241 98.165 105.375 C 98.001 105.411 97.834 105.428 97.668 105.428 Z"
        fill="#8b8cc7"/>
    <path
        id="path_38"
        d="M 21.857 43.919 C 24.293 43.505 25.942 41.191 25.527 38.753 L 23.886 29.096 L 15.045 30.599 L 16.686 40.256 C 17.101 42.698 19.416 44.334 21.857 43.919 Z"
        fill="#a6a7dc"/>
    <path
        id="path_39"
        d="M 71.037 35.405 C 73.473 34.991 75.122 32.677 74.707 30.239 L 73.091 20.734 L 64.25 22.237 L 65.866 31.742 C 66.281 34.184 68.595 35.82 71.037 35.405 Z"
        fill="#a6a7dc"/>
    <path
        id="path_40"
        d="M 120.216 26.891 C 122.652 26.477 124.301 24.163 123.886 21.725 L 122.296 12.371 L 113.455 13.874 L 115.045 23.228 C 115.461 25.669 117.775 27.305 120.216 26.891 Z"
        fill="#a6a7dc"/>
</svg>
