<svg version="1.1" id="Layer_1" xmlns="http://www.w3.org/2000/svg" xmlns:xlink="http://www.w3.org/1999/xlink" x="0px" y="0px"
	 viewBox="0 0 224.689651 183" enable-background="new 0 0 224.689651 183" xml:space="preserve">
<g>
	<g>
		<path fill="#C8C6C4" d="M165.188919,138.094818c1.025177,6.02951-2.954666,11.734695-8.879028,12.741272L33.187798,171.754791
			c-5.928894,1.007309-11.567635-3.072922-12.591187-9.093475L3.466693,62.226421L148.059006,37.65976L165.188919,138.094818z"/>
		<path fill="#FFFFFF" d="M143.560684,43.396049c0,0-133.166595,22.714027-133.082153,23.196701l13.409365,75.99279
			c0.200523,0.253143,10.831255,23.902695,45.920181,18.484604c13.549599-3.937637,84.062782-25.895645,97.998726-18.645767
			C157.059036,123.627708,143.560684,43.396049,143.560684,43.396049z"/>
		<path fill="#BDBDE6" d="M132.479675,10.6401L9.358573,31.565334C3.429757,32.572964-0.860522,38.19659,0.147025,44.12484
			l3.279741,17.795502l144.429382-24.615562l-2.960175-17.612272C143.887939,13.762074,138.403824,9.633201,132.479675,10.6401z"/>
		<polygon fill="#E2E2F6" points="2.432393,56.442196 4.710083,69.598663 149.506226,44.968395 147.22847,31.812006 		"/>
		<path fill="#E2E2F6" d="M22.469942,20.75655c-0.41503-2.442167-2.729414-4.078442-5.170773-3.663412
			c-2.436347,0.414061-4.084582,2.727797-3.6702,5.166002l1.417404,8.339621l8.841053-1.502672L22.469942,20.75655z"/>
		<path fill="#E2E2F6" d="M71.649574,12.242187c-0.415024-2.442166-2.729416-4.078441-5.170769-3.663411
			c-2.436348,0.41406-4.084587,2.727798-3.670204,5.166003l1.443184,8.491168l8.841057-1.502592L71.649574,12.242187z"/>
		<path fill="#E2E2F6" d="M120.829369,3.727742c-0.415031-2.442166-2.729408-4.078441-5.170769-3.663411
			c-2.436424,0.414059-4.084579,2.727797-3.670197,5.166003l1.468887,8.642872l8.841057-1.502591L120.829369,3.727742z"/>
		
			<rect x="29.521975" y="75.309059" transform="matrix(0.985339 -0.170607 0.170607 0.985339 -13.86896 7.973339)" fill="#EAEAEA" width="19.87228" height="18.747339"/>
		
			<rect x="33.755684" y="99.763786" transform="matrix(0.985339 -0.170607 0.170607 0.985339 -17.979033 9.054165)" fill="#EAEAEA" width="19.87228" height="18.747345"/>
		
			<rect x="37.886066" y="123.621925" transform="matrix(0.985339 -0.170607 0.170607 0.985339 -21.988838 10.108616)" fill="#EE8F94" width="19.872278" height="18.747345"/>
		
			<rect x="56.66069" y="70.610786" transform="matrix(0.985339 -0.170607 0.170607 0.985339 -12.669528 12.534508)" fill="#EE8F94" width="19.872278" height="18.747345"/>
		
			<rect x="60.894306" y="95.065361" transform="matrix(0.985339 -0.170607 0.170607 0.985339 -16.779577 13.615315)" fill="#F7C6C8" width="19.872284" height="18.747345"/>
		
			<rect x="65.024689" y="118.923485" transform="matrix(0.985339 -0.170607 0.170607 0.985339 -20.789379 14.669765)" fill="#EAEAEA" width="19.872278" height="18.747345"/>
		
			<rect x="83.715736" y="65.926872" transform="matrix(0.985339 -0.170607 0.170607 0.985339 -11.473771 17.081612)" fill="#EAEAEA" width="19.872284" height="18.747339"/>
		
			<rect x="87.949493" y="90.381424" transform="matrix(0.985339 -0.170607 0.170607 0.985339 -15.583815 18.162443)" fill="#EAEAEA" width="19.872278" height="18.747345"/>
		
			<rect x="92.079826" y="114.239723" transform="matrix(0.985339 -0.170607 0.170607 0.985339 -19.593647 19.216888)" fill="#F7C6C8" width="19.872278" height="18.747345"/>
		
			<rect x="110.798805" y="61.238346" transform="matrix(0.985339 -0.170607 0.170607 0.985339 -10.276817 21.633429)" fill="#EAEAEA" width="19.872278" height="18.747339"/>
		
			<rect x="115.032425" y="85.692924" transform="matrix(0.985339 -0.170607 0.170607 0.985339 -14.386866 22.714237)" fill="#EE8F94" width="19.872278" height="18.747339"/>
		
			<rect x="119.162781" y="109.55088" transform="matrix(0.985339 -0.170607 0.170607 0.985339 -18.396641 23.768681)" fill="#EAEAEA" width="19.872278" height="18.747345"/>
		<path fill="#EDEBE9" d="M59.319687,147.574539c-6.343765,5.124619-13.47168,6.860535-21.614578,5.808456
			c-9.778364-1.263428-13.817282-10.797455-13.817282-10.797455c0.873299,4.991898,7.089363,18.775406,20.936468,21.005173
			c6.58931,1.060959,15.076107,1.994568,25.887962-2.744446C61.74868,160.839462,59.372711,147.737473,59.319687,147.574539z"/>
		<g>
			<path fill="#6264A7" d="M131.802063,117.608292l-7.260796-6.781189c-1.055237-0.985565-2.709694-0.92907-3.695335,0.126167l0,0
				c-0.985565,1.055237-0.92907,2.709694,0.126167,3.695259l7.260796,6.781258L131.802063,117.608292z"/>
			<path fill="#6264A7" d="M190.089951,162.396301l-46.591736-41.255692c-0.601089-0.532143-1.519806-0.476448-2.052032,0.124634
				l-7.690277,8.684998c-0.742767,0.838867-0.6642,2.132919,0.174652,2.875778l46.154892,40.86879
				c3.090546,2.736603,7.814346,2.4496,10.550964-0.64093l0.094482-0.106689
				C193.467407,169.856628,193.180557,165.132828,190.089951,162.396301z"/>
			<polygon fill="#B3AFAB" points="123.298119,117.445267 127.309158,112.862732 142.849197,120.34935 190.036606,162.349014 
				180.032104,173.647507 132.684906,131.97728 			"/>
			<path fill="#797673" d="M188.333237,181.279449c2.759323,2.466003,6.993835,2.256195,9.458145-0.468628l1.227142-1.356781
				c2.418564-2.674301,2.226852-6.773102-0.389496-9.255676c1.485123-5.065384,0.042099-10.782761-4.184479-14.559891
				l-12.240585-10.938828c-0.831268-0.745438-2.104721-0.677063-2.845795,0.140869
				c-0.740982,0.820282-0.66954,2.086304,0.160995,2.827377l12.240021,10.93866
				c2.484116,2.220474,3.616608,5.374283,3.362427,8.44017l-19.154953-17.138245l-10.057526,11.427902"/>
		</g>
		<g>
			
				<ellipse transform="matrix(0.20599 -0.978554 0.978554 0.20599 97.808159 227.058655)" fill="#FFFFFF" cx="188.819977" cy="53.258919" rx="28.466774" ry="28.466362"/>
			<path fill="#C8C6C4" d="M193.99025,28.63467c13.591049,2.860672,22.320801,16.24522,19.460144,29.836361
				c-2.860748,13.591141-16.245316,22.320892-29.836441,19.460228c-13.591064-2.860672-22.320816-16.245228-19.460144-29.836365
				C167.014557,34.503757,180.399033,25.773836,193.99025,28.63467L193.99025,28.63467 M195.338959,22.22673
				c-17.151825-3.610229-33.982849,7.367476-37.593002,24.519295c-3.610229,17.151821,7.367462,33.982857,24.519287,37.59301
				s33.982864-7.367477,37.593094-24.519299C223.468491,42.667912,212.49086,25.836878,195.338959,22.22673L195.338959,22.22673z"/>
			<g>
				<g>
					<path fill="#B3AFAB" d="M215.86969,20.860731l7.834869,8.638428c1.409653,1.554157,1.292374,3.95672-0.261703,5.366362l0,0
						c-1.554153,1.409645-3.956726,1.29237-5.366272-0.261703l-7.835037-8.638428
						c-1.409561-1.554157-1.292374-3.95672,0.261795-5.366364l0,0C212.05748,19.189461,214.460144,19.306654,215.86969,20.860731z"
						/>
					<path fill="#B3AFAB" d="M188.802109,53.282879"/>
				</g>
				<g>
					<path fill="#B3AFAB" d="M177.100861,12.700457l-10.65239,4.747173c-1.916489,0.854063-2.77774,3.100071-1.923676,5.016479l0,0
						c0.853973,1.916491,3.100067,2.777746,5.016479,1.923683l10.65239-4.747175
						c1.916489-0.854063,2.77774-3.100071,1.923676-5.016479l0,0C181.263367,12.70773,179.017441,11.846474,177.100861,12.700457z"
						/>
					<path fill="#B3AFAB" d="M188.802109,53.282879"/>
				</g>
			</g>
			<g>
				<g>
					<path fill="#C8C6C4" d="M203.69136,88.499504l-2.423096-7.407478c-0.652328-1.994247-2.797714-3.08197-4.79187-2.429642l0,0
						c-1.994247,0.652321-3.08197,2.797707-2.429642,4.791946l2.423096,7.407486
						c0.652328,1.994247,2.797775,3.082047,4.791946,2.429642l0,0C203.255875,92.639046,204.343689,90.493668,203.69136,88.499504z"
						/>
					<path fill="#B3AFAB" d="M193.935623,81.492264c-0.132965,0.631638-0.103378,1.306435,0.110245,1.965866l0.353439,1.068253
						c2.515472-0.446312,4.950699-1.198616,7.26207-2.221115l-0.395309-1.212593
						c-0.645782-1.997238-2.793747-3.08181-4.792755-2.427383C195.135361,79.097458,194.20517,80.211769,193.935623,81.492264z"/>
					<path fill="#B3AFAB" d="M188.802109,53.282879"/>
				</g>
				<g>
					<path fill="#C8C6C4" d="M160.97995,79.509415l5.203583-5.802246c1.400833-1.56208,3.802673-1.692612,5.364746-0.291855l0,0
						c1.562073,1.400833,1.692612,3.802757,0.291779,5.364754l-5.203598,5.802246
						c-1.400833,1.56208-3.80275,1.692612-5.364746,0.291855l0,0C159.709808,83.473244,159.579117,81.071419,160.97995,79.509415z"
						/>
					<path fill="#B3AFAB" d="M172.73259,77.029343c-0.13295,0.631638-0.432083,1.237328-0.893341,1.754593l-0.754074,0.835159
						c-2.122101-1.422424-4.047409-3.09272-5.75061-4.960068l0.850677-0.950409
						c1.396057-1.567413,3.799026-1.694145,5.364655-0.289352C172.600037,74.35408,173.002228,75.748856,172.73259,77.029343z"/>
					<path fill="#B3AFAB" d="M188.802109,53.282879"/>
				</g>
			</g>
			<g>
				<path fill="#C3C3E1" d="M198.26413,63.725533c-0.59317,0-1.189804-0.198177-1.683716-0.604401l-10.70575-8.81139
					l3.820709-18.149429c0.3013-1.433727,1.707077-2.350754,3.142014-2.049362c1.433319,0.3018,2.351151,1.70829,2.04895,3.141617
					L191.728714,52.2565l8.222519,6.76849c1.131134,0.931171,1.293411,2.602764,0.362656,3.733887
					C199.789917,63.395611,199.030014,63.725533,198.26413,63.725533z"/>
			</g>
		</g>
		<g>
			<path fill="#8B8CC7" d="M97.668312,105.428413c-0.454391,0-0.903122-0.132393-1.288574-0.387466l-8.368073-5.525909
				c-1.077377-0.71093-1.374245-2.161629-0.66259-3.23941c0.711327-1.076973,2.160896-1.375381,3.239815-0.662193l6.367363,4.204529
				l7.556282-12.086205c0.685059-1.09597,2.127037-1.427185,3.222351-0.743652
				c1.094925,0.685059,1.427513,2.127441,0.743256,3.221947L99.65107,104.3293
				c-0.334122,0.535049-0.869987,0.911858-1.485703,1.04586C98.0009,105.410873,97.834244,105.428413,97.668312,105.428413z"/>
		</g>
	</g>
	<path fill="#A6A7DC" d="M21.856894,43.919468c2.436348-0.414059,4.084583-2.727798,3.6702-5.166084l-1.641285-9.657047
		l-8.841053,1.502672l1.641287,9.657045C17.101151,42.698139,19.415537,44.334412,21.856894,43.919468z"/>
	<path fill="#A6A7DC" d="M71.036606,35.405022c2.436348-0.414059,4.084587-2.727795,3.670204-5.166082l-1.615509-9.505342
		l-8.841049,1.50259l1.615501,9.505341C66.280785,34.183777,68.595169,35.819969,71.036606,35.405022z"/>
	<path fill="#A6A7DC" d="M120.216324,26.890575c2.436348-0.414059,4.084579-2.727797,3.670204-5.166082l-1.589722-9.353718
		l-8.841057,1.502592l1.589722,9.353798C115.460503,25.669333,117.774971,27.305445,120.216324,26.890575z"/>
</g>
</svg>
